<svg width="513" height="620" viewBox="0 0 513 620" fill="none" xmlns="http://www.w3.org/2000/svg">
<rect x="482" y="175" width="31" height="156" fill="#CCCCCC"/>
<rect x="327" y="478" width="31" height="141" transform="rotate(90 327 478)" fill="#CCCCCC"/>
<rect x="327" y="1" width="30" height="141" transform="rotate(90 327 1)" fill="#CCCCCC"/>
<rect x="1" y="188" width="31" height="130" fill="#CCCCCC"/>
<path d="M307.85 508.697C299.566 508.697 292.85 501.981 292.85 493.697L292.85 492.961C292.85 484.677 299.566 477.961 307.85 477.961L396.672 477.961C443.785 477.961 482.114 439.491 482.114 392.204L482.114 303C482.114 294.716 488.83 288 497.114 288L497.737 288C506.021 288 512.737 294.716 512.737 303L512.737 392.204C512.737 456.439 460.67 508.697 396.672 508.697L307.85 508.697Z" fill="white"/>
<path d="M305.851 0.999976C297.567 0.999975 290.851 7.7157 290.851 16L290.851 16.7782C290.851 25.0625 297.567 31.7782 305.851 31.7782L395.617 31.7782C443.158 31.7782 481.835 70.3013 481.835 117.653L481.835 207C481.835 215.284 488.551 222 496.835 222L497.737 222C506.021 222 512.737 215.284 512.737 207L512.737 117.653C512.737 53.3302 460.197 0.999982 395.617 0.99998L305.851 0.999976Z" fill="white"/>
<path d="M209.885 508.697C218.169 508.697 224.885 501.981 224.885 493.697L224.885 493.1C224.885 484.816 218.169 478.1 209.885 478.1L119.051 478.1C71.0256 478.1 31.9538 439.804 31.9538 392.732L31.9538 304C31.9538 295.716 25.2381 289 16.9538 289L15.7372 289C7.45291 289 0.737182 295.716 0.737182 304L0.737178 392.732C0.737175 456.675 53.8127 508.697 119.051 508.697L209.885 508.697Z" fill="white"/>
<path d="M209.885 0.697128C218.169 0.697128 224.885 7.41286 224.885 15.6971L224.885 16.5175C224.885 24.8018 218.169 31.5175 209.885 31.5175L119.051 31.5175C71.0256 31.5175 31.9538 70.0934 31.9538 117.51L31.9538 207C31.9538 215.284 25.2381 222 16.9538 222L15.7372 222C7.4529 222 0.737173 215.284 0.737174 207L0.737178 117.51C0.73718 53.099 53.8127 0.697121 119.051 0.697124L209.885 0.697128Z" fill="white"/>
<path d="M151.55 256.372C151.55 314.201 198.368 361.081 256.123 361.081L276.445 420.89L256.123 480.698C132.393 480.698 32.0892 380.264 32.0892 256.372C32.0892 256.372 59.3722 222.199 84.1649 219.318C113.996 215.852 151.55 256.372 151.55 256.372Z" fill="#E70808"/>
<path d="M256.554 360.809C314.506 360.809 361.486 313.83 361.486 255.877H481.358C481.358 380.033 380.709 480.681 256.554 480.681C256.554 480.681 239.391 448.572 239.391 423.615C239.391 398.659 256.554 360.809 256.554 360.809Z" fill="#0078C9"/>
<path d="M256.554 198.788C314.507 198.788 361.487 197.925 361.487 255.877C361.487 255.877 397.453 273.397 421.656 273.397C455.706 273.397 481.358 255.877 481.358 255.877C481.358 131.721 380.71 31.0728 256.554 31.0728C132.399 31.0728 31.7503 131.721 31.7503 255.877C31.7503 255.877 57.6264 233.338 91.6181 233.338C116.65 233.338 151.622 255.877 151.622 255.877C151.622 197.924 198.601 198.788 256.554 198.788Z" fill="#FEC021"/>
<path d="M374.588 245.972C372.806 271.086 362.678 298.927 341.596 321.743C322.431 342.495 299.362 358.115 272.553 367.746C269.145 368.973 265.6 369.839 262.124 370.901C255.94 372.79 250.126 370.881 244.342 369.089C222.422 362.302 203.618 350.11 185.885 335.854C159.933 314.995 145.385 287.651 139.425 255.437C136.202 237.987 138.081 220.867 145.608 204.585C164.87 162.868 211.243 157.57 241.995 181.925C245.209 184.467 248.072 187.515 250.857 190.543C254.801 194.838 257.819 194.984 261.715 190.563C272.368 178.468 285.485 170.736 301.504 168.302C327.602 164.338 350.681 175.517 363.896 198.363C370.897 210.477 374.598 224.918 374.588 245.972Z" fill="#0D1B63"/>
<path d="M286.391 256.549C286.391 262.516 285.065 268.001 282.413 273.004C279.761 277.947 276.084 281.865 271.382 284.758C266.741 287.651 261.497 289.098 255.65 289.098C249.804 289.098 244.529 287.651 239.828 284.758C235.187 281.865 231.54 277.947 228.888 273.004C226.296 268.001 225 262.516 225 256.549C225 250.582 226.296 245.127 228.888 240.184C231.54 235.181 235.187 231.233 239.828 228.34C244.529 225.447 249.804 224 255.65 224C261.497 224 266.741 225.447 271.382 228.34C276.084 231.233 279.761 235.181 282.413 240.184C285.065 245.127 286.391 250.582 286.391 256.549ZM274.637 256.549C274.637 252.51 273.823 248.864 272.196 245.609C270.569 242.294 268.308 239.672 265.415 237.743C262.522 235.814 259.267 234.85 255.65 234.85C251.973 234.85 248.688 235.814 245.795 237.743C242.962 239.611 240.732 242.203 239.105 245.518C237.537 248.834 236.754 252.51 236.754 256.549C236.754 260.587 237.537 264.264 239.105 267.579C240.732 270.895 242.962 273.517 245.795 275.445C248.688 277.314 251.973 278.248 255.65 278.248C259.267 278.248 262.522 277.284 265.415 275.355C268.308 273.426 270.569 270.834 272.196 267.579C273.823 264.264 274.637 260.587 274.637 256.549Z" fill="white"/>
<path d="M194.508 289.098C190.168 289.098 186.31 288.555 182.935 287.47C179.559 286.386 176.395 284.547 173.441 281.955C171.814 280.509 171 278.911 171 277.163C171 275.777 171.512 274.571 172.537 273.547C173.562 272.462 174.797 271.919 176.244 271.919C177.389 271.919 178.414 272.281 179.318 273.004C181.729 274.993 184.08 276.44 186.37 277.344C188.661 278.248 191.373 278.7 194.508 278.7C197.883 278.7 200.776 277.947 203.187 276.44C205.659 274.933 206.894 273.065 206.894 270.834C206.894 268.122 205.689 266.012 203.278 264.505C200.867 262.938 197.039 261.763 191.795 260.979C178.595 259.05 171.995 252.902 171.995 242.535C171.995 238.737 172.989 235.452 174.978 232.68C176.967 229.847 179.68 227.707 183.115 226.26C186.551 224.753 190.379 224 194.598 224C198.395 224 201.952 224.573 205.267 225.718C208.642 226.863 211.445 228.37 213.675 230.239C215.423 231.625 216.297 233.222 216.297 235.03C216.297 236.417 215.785 237.652 214.76 238.737C213.736 239.762 212.53 240.274 211.144 240.274C210.24 240.274 209.426 240.003 208.703 239.461C207.135 238.195 204.935 237.05 202.102 236.025C199.33 234.94 196.828 234.398 194.598 234.398C190.801 234.398 187.847 235.121 185.737 236.568C183.688 237.954 182.663 239.792 182.663 242.083C182.663 244.675 183.718 246.634 185.828 247.96C187.998 249.286 191.373 250.371 195.954 251.215C201.138 252.119 205.267 253.294 208.341 254.741C211.475 256.127 213.826 258.056 215.393 260.527C216.96 262.938 217.744 266.163 217.744 270.201C217.744 273.999 216.659 277.344 214.489 280.237C212.379 283.07 209.546 285.27 205.99 286.838C202.434 288.344 198.606 289.098 194.508 289.098Z" fill="white"/>
<path d="M316.508 289.098C312.168 289.098 308.31 288.555 304.935 287.47C301.559 286.386 298.395 284.547 295.441 281.955C293.814 280.509 293 278.911 293 277.163C293 275.777 293.512 274.571 294.537 273.547C295.562 272.462 296.797 271.919 298.244 271.919C299.389 271.919 300.414 272.281 301.318 273.004C303.729 274.993 306.08 276.44 308.37 277.344C310.661 278.248 313.373 278.7 316.508 278.7C319.883 278.7 322.776 277.947 325.187 276.44C327.659 274.933 328.894 273.065 328.894 270.834C328.894 268.122 327.689 266.012 325.278 264.505C322.867 262.938 319.039 261.763 313.795 260.979C300.595 259.05 293.995 252.902 293.995 242.535C293.995 238.737 294.989 235.452 296.978 232.68C298.967 229.847 301.68 227.707 305.115 226.26C308.551 224.753 312.379 224 316.598 224C320.395 224 323.952 224.573 327.267 225.718C330.642 226.863 333.445 228.37 335.675 230.239C337.423 231.625 338.297 233.222 338.297 235.03C338.297 236.417 337.785 237.652 336.76 238.737C335.736 239.762 334.53 240.274 333.144 240.274C332.24 240.274 331.426 240.003 330.703 239.461C329.135 238.195 326.935 237.05 324.102 236.025C321.33 234.94 318.828 234.398 316.598 234.398C312.801 234.398 309.847 235.121 307.737 236.568C305.688 237.954 304.663 239.792 304.663 242.083C304.663 244.675 305.718 246.634 307.828 247.96C309.998 249.286 313.373 250.371 317.954 251.215C323.138 252.119 327.267 253.294 330.341 254.741C333.475 256.127 335.826 258.056 337.393 260.527C338.96 262.938 339.744 266.163 339.744 270.201C339.744 273.999 338.659 277.344 336.489 280.237C334.379 283.07 331.546 285.27 327.99 286.838C324.434 288.344 320.606 289.098 316.508 289.098Z" fill="white"/>
<path d="M70.0102 568.696L67.5583 582.394H71.3997C72.6529 582.394 73.6882 582.813 74.5055 583.653C75.3773 584.44 75.8132 585.438 75.8132 586.645C75.8132 587.799 75.3773 588.744 74.5055 589.479C73.6882 590.213 72.6529 590.581 71.3997 590.581H66.0871L64.4524 599.87C64.289 600.867 63.8258 601.681 63.063 602.311C62.3547 602.94 61.4556 603.255 60.3659 603.255C59.0581 603.255 57.9956 602.862 57.1783 602.074C56.4155 601.287 56.0341 600.264 56.0341 599.004C56.0341 598.532 56.0613 598.191 56.1158 597.981L57.4235 590.581H44.0195L42.3848 599.87C42.2214 600.92 41.7582 601.76 40.9954 602.389C40.2326 602.967 39.3063 603.255 38.2165 603.255C36.9633 603.255 35.928 602.862 35.1107 602.074C34.3479 601.235 33.9664 600.185 33.9664 598.926C33.9664 598.506 33.9937 598.191 34.0482 597.981L35.3559 590.581H32.4135C31.1603 590.581 30.0978 590.187 29.226 589.4C28.4087 588.56 28 587.537 28 586.33C28 585.175 28.4087 584.23 29.226 583.496C30.0978 582.761 31.1603 582.394 32.4135 582.394H36.827L39.279 568.696H35.4376C34.1844 568.696 33.1219 568.302 32.2501 567.515C31.4327 566.675 31.0241 565.652 31.0241 564.445C31.0241 563.29 31.4327 562.345 32.2501 561.611C33.1219 560.876 34.1844 560.509 35.4376 560.509H40.6685L42.3031 551.534C42.4666 550.537 42.9025 549.723 43.6108 549.094C44.3736 548.464 45.2999 548.149 46.3897 548.149C47.6974 548.149 48.7327 548.543 49.4955 549.33C50.3128 550.117 50.7215 551.14 50.7215 552.4C50.7215 552.872 50.6942 553.213 50.6397 553.423L49.4138 560.509H62.7361L64.3707 551.534C64.5342 550.484 64.9973 549.671 65.7602 549.094C66.523 548.464 67.4493 548.149 68.539 548.149C69.7923 548.149 70.8003 548.569 71.5631 549.409C72.3805 550.196 72.7891 551.219 72.7891 552.479C72.7891 552.899 72.7619 553.213 72.7074 553.423L71.4814 560.509H74.342C75.5952 560.509 76.6305 560.928 77.4478 561.768C78.3196 562.555 78.7555 563.552 78.7555 564.76C78.7555 565.914 78.3196 566.859 77.4478 567.594C76.6305 568.328 75.5952 568.696 74.342 568.696H70.0102ZM61.3466 568.696H47.9426L45.4906 582.394H58.8947L61.3466 568.696Z" fill="white"/>
<path d="M122.185 572.711C125.072 573.813 127.415 575.492 129.214 577.749C131.066 580.006 131.992 582.918 131.992 586.487C131.992 592.733 130.14 597.089 126.435 599.555C122.729 602.022 118.316 603.255 113.194 603.255H92.8428C91.4261 603.255 90.2274 602.809 89.2466 601.917C88.3203 600.972 87.8572 599.818 87.8572 598.453V552.951C87.8572 551.587 88.3203 550.458 89.2466 549.566C90.2274 548.621 91.4261 548.149 92.8428 548.149H113.439C123.792 548.149 128.968 552.82 128.968 562.162C128.968 564.523 128.369 566.623 127.17 568.46C126.026 570.244 124.364 571.661 122.185 572.711ZM118.343 563.894C118.343 561.742 117.771 560.141 116.627 559.091C115.537 557.989 113.984 557.438 111.968 557.438H98.4823V569.719H112.213C113.848 569.719 115.265 569.194 116.463 568.145C117.717 567.095 118.343 565.678 118.343 563.894ZM113.194 594.202C115.755 594.202 117.744 593.546 119.161 592.234C120.632 590.922 121.367 589.006 121.367 586.487C121.367 583.391 120.523 581.37 118.834 580.426C117.144 579.481 115.074 579.009 112.622 579.009H98.4823V594.202H113.194Z" fill="white"/>
<path d="M163.318 560.351C164.953 560.351 166.315 560.797 167.405 561.689C168.549 562.582 169.121 563.631 169.121 564.838C169.121 566.465 168.685 567.699 167.813 568.538C166.942 569.326 165.906 569.719 164.708 569.719C163.89 569.719 162.964 569.535 161.929 569.168C161.765 569.116 161.384 569.011 160.784 568.853C160.24 568.696 159.64 568.617 158.986 568.617C157.57 568.617 156.207 569.037 154.9 569.877C153.592 570.716 152.502 572.002 151.63 573.734C150.813 575.413 150.404 577.434 150.404 579.796V598.453C150.404 599.818 149.941 600.972 149.015 601.917C148.089 602.809 146.917 603.255 145.501 603.255C144.084 603.255 142.912 602.809 141.986 601.917C141.06 600.972 140.597 599.818 140.597 598.453V565.94C140.597 564.576 141.06 563.448 141.986 562.555C142.912 561.611 144.084 561.138 145.501 561.138C146.917 561.138 148.089 561.611 149.015 562.555C149.941 563.448 150.404 564.576 150.404 565.94V566.964C151.658 564.812 153.456 563.185 155.799 562.083C158.142 560.928 160.648 560.351 163.318 560.351Z" fill="white"/>
<path d="M185.271 598.453C185.271 599.818 184.808 600.972 183.881 601.917C182.955 602.809 181.784 603.255 180.367 603.255C178.95 603.255 177.779 602.809 176.852 601.917C175.926 600.972 175.463 599.818 175.463 598.453V565.94C175.463 564.576 175.926 563.448 176.852 562.555C177.779 561.611 178.95 561.138 180.367 561.138C181.784 561.138 182.955 561.611 183.881 562.555C184.808 563.448 185.271 564.576 185.271 565.94V598.453ZM180.285 556.021C178.433 556.021 177.125 555.733 176.362 555.155C175.599 554.578 175.218 553.555 175.218 552.085V550.589C175.218 549.12 175.626 548.096 176.444 547.519C177.261 546.942 178.569 546.653 180.367 546.653C182.274 546.653 183.609 546.942 184.372 547.519C185.135 548.096 185.516 549.12 185.516 550.589V552.085C185.516 553.607 185.107 554.657 184.29 555.234C183.527 555.759 182.192 556.021 180.285 556.021Z" fill="white"/>
<path d="M231.558 560.351C232.975 560.351 234.146 560.797 235.072 561.689C235.999 562.582 236.462 563.736 236.462 565.153V600.185C236.462 606.588 234.391 611.311 230.25 614.355C226.164 617.452 220.96 619 214.639 619C213.005 619 210.743 618.738 207.856 618.213C205.022 617.688 203.006 617.163 201.807 616.638C199.138 615.536 197.803 614.014 197.803 612.072C197.803 611.705 197.884 611.285 198.048 610.813C198.375 609.658 198.92 608.766 199.682 608.136C200.5 607.559 201.372 607.27 202.298 607.27C202.843 607.27 203.36 607.349 203.851 607.506C204.069 607.559 205.404 608.031 207.856 608.923C210.362 609.868 212.623 610.34 214.639 610.34C218.671 610.34 221.668 609.553 223.63 607.979C225.646 606.457 226.654 604.279 226.654 601.445V597.666C225.455 599.293 223.63 600.762 221.178 602.074C218.78 603.387 216.192 604.043 213.413 604.043C209.599 604.043 206.112 603.124 202.952 601.287C199.846 599.398 197.394 596.8 195.596 593.494C193.798 590.187 192.899 586.435 192.899 582.236C192.899 578.038 193.77 574.285 195.514 570.979C197.312 567.62 199.737 565.022 202.788 563.185C205.894 561.296 209.327 560.351 213.086 560.351C215.865 560.351 218.454 560.902 220.851 562.004C223.248 563.106 225.183 564.445 226.654 566.019V565.153C226.654 563.789 227.117 562.66 228.043 561.768C228.97 560.823 230.141 560.351 231.558 560.351ZM214.639 595.383C218.29 595.383 221.26 594.15 223.548 591.683C225.891 589.164 227.063 586.015 227.063 582.236C227.063 578.457 225.891 575.309 223.548 572.789C221.26 570.27 218.29 569.011 214.639 569.011C210.989 569.011 208.019 570.27 205.731 572.789C203.442 575.309 202.298 578.457 202.298 582.236C202.298 586.015 203.442 589.164 205.731 591.683C208.019 594.15 210.989 595.383 214.639 595.383Z" fill="white"/>
<path d="M282.062 560.351C283.479 560.351 284.651 560.797 285.577 561.689C286.503 562.582 286.966 563.736 286.966 565.153V598.453C286.966 599.818 286.503 600.972 285.577 601.917C284.651 602.809 283.479 603.255 282.062 603.255C280.646 603.255 279.474 602.809 278.548 601.917C277.676 601.025 277.213 599.896 277.159 598.532C275.796 600.054 273.944 601.366 271.601 602.468C269.312 603.518 266.888 604.043 264.327 604.043C260.567 604.043 257.161 603.124 254.11 601.287C251.059 599.398 248.634 596.8 246.836 593.494C245.092 590.187 244.221 586.435 244.221 582.236C244.221 578.038 245.092 574.285 246.836 570.979C248.58 567.62 250.95 565.022 253.947 563.185C256.998 561.296 260.349 560.351 264 560.351C266.615 560.351 269.067 560.823 271.356 561.768C273.644 562.66 275.578 563.815 277.159 565.232V565.153C277.159 563.789 277.622 562.66 278.548 561.768C279.474 560.823 280.646 560.351 282.062 560.351ZM265.553 595.383C269.094 595.383 271.982 594.15 274.216 591.683C276.45 589.164 277.567 586.015 277.567 582.236C277.567 578.457 276.45 575.309 274.216 572.789C271.982 570.27 269.094 569.011 265.553 569.011C262.065 569.011 259.205 570.27 256.971 572.789C254.737 575.309 253.62 578.457 253.62 582.236C253.62 586.015 254.71 589.164 256.889 591.683C259.123 594.15 262.011 595.383 265.553 595.383Z" fill="white"/>
<path d="M332.985 545C334.402 545 335.574 545.446 336.5 546.338C337.426 547.23 337.889 548.385 337.889 549.802V598.453C337.889 599.818 337.426 600.972 336.5 601.917C335.574 602.809 334.402 603.255 332.985 603.255C331.569 603.255 330.397 602.809 329.471 601.917C328.599 601.025 328.136 599.896 328.081 598.532C326.719 600.054 324.867 601.366 322.524 602.468C320.235 603.518 317.81 604.043 315.25 604.043C311.49 604.043 308.084 603.124 305.033 601.287C301.982 599.398 299.557 596.8 297.759 593.494C296.015 590.187 295.143 586.435 295.143 582.236C295.143 578.038 296.015 574.285 297.759 570.979C299.502 567.62 301.873 565.022 304.87 563.185C307.921 561.296 311.272 560.351 314.923 560.351C317.538 560.351 319.99 560.823 322.278 561.768C324.567 562.66 326.501 563.815 328.081 565.232V549.802C328.081 548.438 328.545 547.309 329.471 546.417C330.397 545.472 331.569 545 332.985 545ZM316.475 595.383C320.017 595.383 322.905 594.15 325.139 591.683C327.373 589.164 328.49 586.015 328.49 582.236C328.49 578.457 327.373 575.309 325.139 572.789C322.905 570.27 320.017 569.011 316.475 569.011C312.988 569.011 310.128 570.27 307.894 572.789C305.66 575.309 304.543 578.457 304.543 582.236C304.543 586.015 305.632 589.164 307.812 591.683C310.046 594.15 312.934 595.383 316.475 595.383Z" fill="white"/>
<path d="M357.754 598.453C357.754 599.818 357.291 600.972 356.365 601.917C355.438 602.809 354.267 603.255 352.85 603.255C351.433 603.255 350.262 602.809 349.336 601.917C348.409 600.972 347.946 599.818 347.946 598.453V565.94C347.946 564.576 348.409 563.448 349.336 562.555C350.262 561.611 351.433 561.138 352.85 561.138C354.267 561.138 355.438 561.611 356.365 562.555C357.291 563.448 357.754 564.576 357.754 565.94V598.453ZM352.768 556.021C350.916 556.021 349.608 555.733 348.845 555.155C348.082 554.578 347.701 553.555 347.701 552.085V550.589C347.701 549.12 348.11 548.096 348.927 547.519C349.744 546.942 351.052 546.653 352.85 546.653C354.757 546.653 356.092 546.942 356.855 547.519C357.618 548.096 357.999 549.12 357.999 550.589V552.085C357.999 553.607 357.59 554.657 356.773 555.234C356.01 555.759 354.675 556.021 352.768 556.021Z" fill="white"/>
<path d="M365.3 596.721C364.81 596.091 364.565 595.304 364.565 594.36C364.565 592.995 365.273 591.84 366.69 590.896C367.452 590.423 368.242 590.187 369.06 590.187C370.204 590.187 371.294 590.686 372.329 591.683C373.964 593.31 375.653 594.517 377.396 595.304C379.195 596.091 381.347 596.485 383.853 596.485C388.103 596.328 390.228 594.779 390.228 591.84C390.228 590.318 389.493 589.164 388.022 588.377C386.605 587.589 384.371 586.802 381.32 586.015C378.159 585.175 375.571 584.335 373.555 583.496C371.593 582.656 369.877 581.396 368.406 579.717C366.989 577.985 366.281 575.676 366.281 572.789C366.281 570.27 367.016 568.092 368.488 566.255C370.013 564.366 371.975 562.923 374.372 561.926C376.824 560.876 379.413 560.351 382.137 560.351C384.916 560.351 387.695 560.85 390.474 561.847C393.252 562.844 395.432 564.313 397.012 566.255C397.72 567.095 398.075 568.04 398.075 569.089C398.075 570.296 397.557 571.294 396.522 572.081C395.759 572.658 394.887 572.947 393.906 572.947C392.708 572.947 391.727 572.579 390.964 571.845C389.983 570.69 388.703 569.772 387.123 569.089C385.597 568.407 383.853 568.066 381.892 568.066C377.751 568.066 375.68 569.509 375.68 572.396C375.68 573.55 376.061 574.495 376.824 575.23C377.587 575.912 378.541 576.463 379.685 576.883C380.884 577.25 382.546 577.723 384.671 578.3C387.613 579.087 390.065 579.901 392.026 580.74C393.988 581.58 395.65 582.866 397.012 584.598C398.374 586.33 399.055 588.613 399.055 591.447C399.055 594.018 398.265 596.275 396.685 598.217C395.105 600.106 393.062 601.55 390.555 602.547C388.103 603.544 385.57 604.043 382.954 604.043C379.358 604.043 376.007 603.465 372.901 602.311C369.795 601.156 367.262 599.293 365.3 596.721Z" fill="white"/>
<path d="M428.35 594.36C429.113 594.36 429.794 594.727 430.393 595.462C431.047 596.144 431.374 597.062 431.374 598.217C431.374 599.634 430.557 600.841 428.922 601.838C427.342 602.783 425.544 603.255 423.528 603.255C420.149 603.255 417.289 602.573 414.946 601.209C412.657 599.791 411.513 596.826 411.513 592.313V570.585H407.753C406.446 570.585 405.356 570.165 404.484 569.326C403.612 568.486 403.176 567.436 403.176 566.177C403.176 564.97 403.612 563.972 404.484 563.185C405.356 562.345 406.446 561.926 407.753 561.926H411.513V556.887C411.513 555.523 411.976 554.394 412.903 553.502C413.883 552.557 415.082 552.085 416.499 552.085C417.861 552.085 419.005 552.557 419.932 553.502C420.858 554.394 421.321 555.523 421.321 556.887V561.926H427.124C428.432 561.926 429.521 562.345 430.393 563.185C431.265 564.025 431.701 565.074 431.701 566.334C431.701 567.541 431.265 568.565 430.393 569.404C429.521 570.191 428.432 570.585 427.124 570.585H421.321V591.919C421.321 593.021 421.621 593.835 422.22 594.36C422.819 594.832 423.637 595.068 424.672 595.068C425.108 595.068 425.707 594.963 426.47 594.753C427.124 594.491 427.751 594.36 428.35 594.36Z" fill="white"/>
<path d="M476.096 560.351C477.513 560.351 478.684 560.797 479.611 561.689C480.537 562.582 481 563.736 481 565.153V598.453C481 599.818 480.537 600.972 479.611 601.917C478.684 602.809 477.513 603.255 476.096 603.255C474.679 603.255 473.508 602.809 472.582 601.917C471.71 601.025 471.247 599.896 471.192 598.532C469.83 600.054 467.977 601.366 465.634 602.468C463.346 603.518 460.921 604.043 458.36 604.043C454.601 604.043 451.195 603.124 448.144 601.287C445.092 599.398 442.668 596.8 440.87 593.494C439.126 590.187 438.254 586.435 438.254 582.236C438.254 578.038 439.126 574.285 440.87 570.979C442.613 567.62 444.983 565.022 447.98 563.185C451.032 561.296 454.383 560.351 458.033 560.351C460.649 560.351 463.101 560.823 465.389 561.768C467.678 562.66 469.612 563.815 471.192 565.232V565.153C471.192 563.789 471.655 562.66 472.582 561.768C473.508 560.823 474.679 560.351 476.096 560.351ZM459.586 595.383C463.128 595.383 466.016 594.15 468.25 591.683C470.484 589.164 471.601 586.015 471.601 582.236C471.601 578.457 470.484 575.309 468.25 572.789C466.016 570.27 463.128 569.011 459.586 569.011C456.099 569.011 453.238 570.27 451.004 572.789C448.77 575.309 447.653 578.457 447.653 582.236C447.653 586.015 448.743 589.164 450.923 591.683C453.157 594.15 456.044 595.383 459.586 595.383Z" fill="white"/>
</svg>
