<svg width="174" height="208" viewBox="0 0 174 208" fill="none" xmlns="http://www.w3.org/2000/svg">
<rect x="162.652" y="59.2409" width="10.4193" height="52.216" fill="#CCCCCC"/>
<rect x="110.556" y="160.661" width="10.3762" height="47.3908" transform="rotate(90 110.556 160.661)" fill="#CCCCCC"/>
<rect x="110.556" y="1" width="10.0415" height="47.3908" transform="rotate(90 110.556 1)" fill="#CCCCCC"/>
<rect x="0.985413" y="63.5923" width="10.4193" height="43.5134" fill="#CCCCCC"/>
<path d="M104.222 170.935C101.381 170.935 99.0777 168.632 99.0777 165.791V165.791C99.0777 162.95 101.381 160.647 104.222 160.647L133.973 160.647C149.808 160.647 162.69 147.771 162.69 131.943L162.69 102.21C162.69 99.3682 164.994 97.0641 167.836 97.0641V97.0641C170.679 97.0641 172.983 99.3682 172.983 102.21L172.983 131.943C172.983 153.444 155.483 170.935 133.973 170.935L104.222 170.935Z" fill="white"/>
<path d="M103.557 0.999997C100.712 0.999997 98.4058 3.30619 98.4058 6.15101V6.15101C98.4058 8.99584 100.712 11.302 103.557 11.302L133.618 11.302C149.597 11.302 162.597 24.1964 162.597 40.0457L162.597 69.7796C162.597 72.6477 164.922 74.9727 167.79 74.9727V74.9727C170.658 74.9727 172.983 72.6477 172.983 69.7796L172.983 40.0457C172.983 18.5159 155.324 0.999999 133.618 0.999998L103.557 0.999997Z" fill="white"/>
<path d="M71.1136 170.935C73.9417 170.935 76.2342 168.643 76.2342 165.815V165.815C76.2343 162.987 73.9417 160.694 71.1136 160.694L40.663 160.694C24.5213 160.694 11.3891 147.876 11.3891 132.12L11.3891 102.645C11.3891 99.7475 9.04041 97.3988 6.1431 97.3988V97.3988C3.2458 97.3988 0.897075 99.7475 0.897075 102.645L0.897073 132.12C0.897072 153.523 18.736 170.935 40.663 170.935L71.1136 170.935Z" fill="white"/>
<path d="M71.0762 0.89862C73.9249 0.898621 76.2343 3.20797 76.2343 6.05669V6.05669C76.2343 8.90542 73.9249 11.2148 71.0762 11.2148L40.663 11.2148C24.5213 11.2148 11.3891 24.1268 11.3891 39.9979L11.3891 69.7267C11.3891 72.624 9.04039 74.9727 6.14309 74.9727V74.9727C3.24579 74.9727 0.897059 72.624 0.897059 69.7267L0.89706 39.9979C0.897061 18.4385 18.736 0.898618 40.663 0.898619L71.0762 0.89862Z" fill="white"/>
<path d="M51.586 86.4776C51.586 105.834 67.3218 121.526 86.7335 121.526L93.5637 141.545L86.7335 161.564C45.1471 161.564 11.4346 127.946 11.4346 86.4776C11.4346 86.4776 20.6046 75.0393 28.9375 74.0751C38.9639 72.9149 51.586 86.4776 51.586 86.4776Z" fill="#E70808"/>
<path d="M86.8782 121.435C106.356 121.435 122.147 105.71 122.147 86.3119H162.436C162.436 127.869 128.608 161.558 86.8782 161.558C86.8782 161.558 81.1096 150.81 81.1096 142.457C81.1096 134.104 86.8782 121.435 86.8782 121.435Z" fill="#0078C9"/>
<path d="M86.8784 67.2033C106.357 67.2033 122.147 66.9143 122.147 86.3119C122.147 86.3119 134.235 92.1761 142.37 92.1761C153.814 92.1761 162.436 86.3119 162.436 86.3119C162.436 44.7548 128.608 11.0659 86.8784 11.0659C45.1491 11.0659 11.3207 44.7548 11.3207 86.3119C11.3207 86.3119 20.0177 78.7679 31.4425 78.7679C39.8557 78.7679 51.6101 86.3119 51.6101 86.3119C51.6101 66.9139 67.4001 67.2033 86.8784 67.2033Z" fill="#FEC021"/>
<path d="M126.55 82.9965C125.951 91.4027 122.547 100.722 115.461 108.359C109.02 115.305 101.266 120.533 92.2557 123.756C91.1101 124.167 89.9187 124.457 88.7503 124.812C86.6719 125.445 84.718 124.806 82.7738 124.206C75.4063 121.934 69.0862 117.853 63.126 113.082C54.4035 106.1 49.5137 96.9471 47.5106 86.1647C46.4272 80.3237 47.0589 74.5936 49.589 69.1437C56.0629 55.1801 71.6489 53.4069 81.985 61.5589C83.0651 62.4096 84.0274 63.4298 84.9634 64.4435C86.289 65.881 87.3036 65.9299 88.6128 64.45C92.1935 60.4018 96.6022 57.8137 101.986 56.9989C110.758 55.6723 118.515 59.4141 122.956 67.0609C125.31 71.1157 126.553 75.9495 126.55 82.9965Z" fill="#0D1B63"/>
<path d="M96.9067 86.5369C96.9067 88.5342 96.461 90.3702 95.5696 92.0447C94.6782 93.6991 93.4424 95.0105 91.8622 95.979C90.3023 96.9474 88.5397 97.4316 86.5746 97.4316C84.6095 97.4316 82.8368 96.9474 81.2566 95.979C79.6967 95.0105 78.471 93.6991 77.5796 92.0447C76.7085 90.3702 76.2729 88.5342 76.2729 86.5369C76.2729 84.5395 76.7085 82.7136 77.5796 81.0592C78.471 79.3847 79.6967 78.0632 81.2566 77.0948C82.8368 76.1263 84.6095 75.6421 86.5746 75.6421C88.5397 75.6421 90.3023 76.1263 91.8622 77.0948C93.4424 78.0632 94.6782 79.3847 95.5696 81.0592C96.461 82.7136 96.9067 84.5395 96.9067 86.5369ZM92.9562 86.5369C92.9562 85.1851 92.6827 83.9645 92.1357 82.875C91.5887 81.7654 90.829 80.8877 89.8566 80.2421C88.8841 79.5965 87.7901 79.2737 86.5746 79.2737C85.3388 79.2737 84.2347 79.5965 83.2622 80.2421C82.3101 80.8676 81.5605 81.7351 81.0135 82.8447C80.4868 83.9544 80.2234 85.1851 80.2234 86.5369C80.2234 87.8886 80.4868 89.1193 81.0135 90.229C81.5605 91.3386 82.3101 92.2162 83.2622 92.8619C84.2347 93.4873 85.3388 93.8 86.5746 93.8C87.7901 93.8 88.8841 93.4772 89.8566 92.8316C90.829 92.186 91.5887 91.3184 92.1357 90.229C92.6827 89.1193 92.9562 87.8886 92.9562 86.5369Z" fill="white"/>
<path d="M66.0242 97.4316C64.5656 97.4316 63.269 97.25 62.1345 96.8868C61 96.5237 59.9364 95.9083 58.9437 95.0408C58.3967 94.5566 58.1232 94.0219 58.1232 93.4369C58.1232 92.9728 58.2954 92.5693 58.6398 92.2263C58.9842 91.8632 59.3995 91.6816 59.8858 91.6816C60.2707 91.6816 60.6151 91.8026 60.919 92.0447C61.7293 92.7105 62.5194 93.1947 63.2893 93.4974C64.0591 93.8 64.9708 93.9513 66.0242 93.9513C67.1587 93.9513 68.1312 93.6991 68.9415 93.1947C69.7722 92.6904 70.1875 92.0649 70.1875 91.3184C70.1875 90.4105 69.7823 89.7044 68.9719 89.2C68.1616 88.6754 66.8751 88.282 65.1126 88.0197C60.6759 87.3741 58.4575 85.3162 58.4575 81.8461C58.4575 80.575 58.7918 79.4755 59.4603 78.5474C60.1289 77.5991 61.0405 76.8829 62.1953 76.3987C63.3501 75.8943 64.6365 75.6421 66.0546 75.6421C67.3309 75.6421 68.5262 75.8338 69.6405 76.2171C70.775 76.6005 71.717 77.1048 72.4666 77.7303C73.0541 78.1943 73.3479 78.729 73.3479 79.3342C73.3479 79.7983 73.1757 80.2119 72.8313 80.575C72.4869 80.918 72.0817 81.0895 71.6157 81.0895C71.3118 81.0895 71.0383 80.9987 70.7952 80.8171C70.2685 80.3934 69.529 80.0101 68.5769 79.6671C67.645 79.304 66.8042 79.1224 66.0546 79.1224C64.7783 79.1224 63.7856 79.3645 63.0766 79.8487C62.3877 80.3127 62.0433 80.9281 62.0433 81.6947C62.0433 82.5623 62.3979 83.218 63.1069 83.6619C63.8363 84.1057 64.9708 84.4689 66.5105 84.7513C68.2527 85.054 69.6405 85.4474 70.6737 85.9316C71.7271 86.3956 72.5173 87.0412 73.044 87.8684C73.5707 88.6755 73.8341 89.7548 73.8341 91.1066C73.8341 92.3776 73.4694 93.4974 72.7401 94.4658C72.031 95.414 71.0789 96.1504 69.8836 96.675C68.6883 97.1794 67.4019 97.4316 66.0242 97.4316Z" fill="white"/>
<path d="M107.029 97.4316C105.57 97.4316 104.274 97.25 103.139 96.8868C102.005 96.5237 100.941 95.9083 99.9485 95.0408C99.4015 94.5566 99.1281 94.0219 99.1281 93.4369C99.1281 92.9728 99.3003 92.5693 99.6447 92.2263C99.9891 91.8632 100.404 91.6816 100.891 91.6816C101.276 91.6816 101.62 91.8026 101.924 92.0447C102.734 92.7105 103.524 93.1947 104.294 93.4974C105.064 93.8 105.976 93.9513 107.029 93.9513C108.164 93.9513 109.136 93.6991 109.946 93.1947C110.777 92.6904 111.192 92.0649 111.192 91.3184C111.192 90.4105 110.787 89.7044 109.977 89.2C109.166 88.6754 107.88 88.282 106.117 88.0197C101.681 87.3741 99.4623 85.3162 99.4623 81.8461C99.4623 80.575 99.7966 79.4755 100.465 78.5474C101.134 77.5991 102.045 76.8829 103.2 76.3987C104.355 75.8943 105.641 75.6421 107.059 75.6421C108.336 75.6421 109.531 75.8338 110.645 76.2171C111.78 76.6005 112.722 77.1048 113.471 77.7303C114.059 78.1943 114.353 78.729 114.353 79.3342C114.353 79.7983 114.18 80.2119 113.836 80.575C113.492 80.918 113.087 81.0895 112.621 81.0895C112.317 81.0895 112.043 80.9987 111.8 80.8171C111.273 80.3934 110.534 80.0101 109.582 79.6671C108.65 79.304 107.809 79.1224 107.059 79.1224C105.783 79.1224 104.79 79.3645 104.081 79.8487C103.393 80.3127 103.048 80.9281 103.048 81.6947C103.048 82.5623 103.403 83.218 104.112 83.6619C104.841 84.1057 105.976 84.4689 107.515 84.7513C109.258 85.054 110.645 85.4474 111.679 85.9316C112.732 86.3956 113.522 87.0412 114.049 87.8684C114.576 88.6755 114.839 89.7548 114.839 91.1066C114.839 92.3776 114.474 93.4974 113.745 94.4658C113.036 95.414 112.084 96.1504 110.888 96.675C109.693 97.1794 108.407 97.4316 107.029 97.4316Z" fill="white"/>
<path d="M24.1801 191.018L23.356 195.603H24.6471C25.0683 195.603 25.4163 195.743 25.691 196.025C25.984 196.288 26.1305 196.622 26.1305 197.026C26.1305 197.412 25.984 197.729 25.691 197.974C25.4163 198.22 25.0683 198.343 24.6471 198.343H22.8615L22.3121 201.453C22.2571 201.786 22.1015 202.059 21.8451 202.27C21.607 202.48 21.3048 202.586 20.9386 202.586C20.499 202.586 20.1419 202.454 19.8672 202.19C19.6108 201.927 19.4826 201.584 19.4826 201.163C19.4826 201.005 19.4918 200.891 19.5101 200.82L19.9496 198.343H15.4445L14.8951 201.453C14.8401 201.804 14.6844 202.085 14.4281 202.296C14.1717 202.489 13.8603 202.586 13.4941 202.586C13.0728 202.586 12.7249 202.454 12.4502 202.19C12.1938 201.909 12.0656 201.558 12.0656 201.136C12.0656 200.996 12.0747 200.891 12.0931 200.82L12.5326 198.343H11.5437C11.1224 198.343 10.7653 198.212 10.4723 197.948C10.1976 197.667 10.0602 197.324 10.0602 196.92C10.0602 196.534 10.1976 196.218 10.4723 195.972C10.7653 195.726 11.1224 195.603 11.5437 195.603H13.0271L13.8512 191.018H12.5601C12.1388 191.018 11.7817 190.886 11.4887 190.623C11.214 190.342 11.0767 189.999 11.0767 189.595C11.0767 189.209 11.214 188.892 11.4887 188.646C11.7817 188.401 12.1388 188.278 12.5601 188.278H14.3182L14.8676 185.274C14.9225 184.94 15.069 184.668 15.3071 184.457C15.5635 184.246 15.8748 184.141 16.2411 184.141C16.6806 184.141 17.0286 184.272 17.285 184.536C17.5597 184.799 17.697 185.142 17.697 185.564C17.697 185.722 17.6879 185.836 17.6696 185.906L17.2575 188.278H21.7352L22.2846 185.274C22.3396 184.922 22.4952 184.65 22.7516 184.457C23.008 184.246 23.3193 184.141 23.6856 184.141C24.1068 184.141 24.4456 184.281 24.702 184.562C24.9767 184.826 25.1141 185.168 25.1141 185.59C25.1141 185.73 25.1049 185.836 25.0866 185.906L24.6746 188.278H25.636C26.0572 188.278 26.4052 188.418 26.6799 188.699C26.9729 188.963 27.1194 189.296 27.1194 189.7C27.1194 190.087 26.9729 190.403 26.6799 190.649C26.4052 190.895 26.0572 191.018 25.636 191.018H24.1801ZM21.2682 191.018H16.763L15.9389 195.603H20.4441L21.2682 191.018Z" fill="white"/>
<path d="M41.7161 192.362C42.6868 192.731 43.4743 193.293 44.0786 194.048C44.7013 194.804 45.0126 195.779 45.0126 196.973C45.0126 199.064 44.3899 200.522 43.1446 201.347C41.8993 202.173 40.4159 202.586 38.6944 202.586H31.8542C31.3781 202.586 30.9752 202.436 30.6455 202.138C30.3342 201.822 30.1785 201.435 30.1785 200.978V185.748C30.1785 185.291 30.3342 184.914 30.6455 184.615C30.9752 184.299 31.3781 184.141 31.8542 184.141H38.7768C42.2564 184.141 43.9962 185.704 43.9962 188.831C43.9962 189.621 43.7947 190.324 43.3918 190.939C43.0073 191.536 42.4487 192.011 41.7161 192.362ZM40.425 189.411C40.425 188.69 40.2327 188.155 39.8481 187.803C39.4819 187.434 38.9599 187.25 38.2823 187.25H33.7497V191.361H38.3647C38.9141 191.361 39.3903 191.185 39.7932 190.834C40.2144 190.482 40.425 190.008 40.425 189.411ZM38.6944 199.555C39.5551 199.555 40.2236 199.336 40.6997 198.897C41.1942 198.458 41.4414 197.816 41.4414 196.973C41.4414 195.937 41.1576 195.26 40.5898 194.944C40.0221 194.628 39.3262 194.47 38.5021 194.47H33.7497V199.555H38.6944Z" fill="white"/>
<path d="M55.5413 188.225C56.0907 188.225 56.5486 188.374 56.9148 188.673C57.2994 188.971 57.4917 189.323 57.4917 189.727C57.4917 190.271 57.3452 190.684 57.0522 190.965C56.7592 191.229 56.4112 191.361 56.0083 191.361C55.7336 191.361 55.4223 191.299 55.0743 191.176C55.0194 191.159 54.8912 191.123 54.6897 191.071C54.5066 191.018 54.3051 190.992 54.0854 190.992C53.6092 190.992 53.1514 191.132 52.7119 191.413C52.2723 191.694 51.906 192.125 51.613 192.704C51.3383 193.267 51.201 193.943 51.201 194.733V200.978C51.201 201.435 51.0453 201.822 50.734 202.138C50.4226 202.436 50.0289 202.586 49.5527 202.586C49.0766 202.586 48.6828 202.436 48.3715 202.138C48.0602 201.822 47.9045 201.435 47.9045 200.978V190.096C47.9045 189.639 48.0602 189.261 48.3715 188.963C48.6828 188.646 49.0766 188.488 49.5527 188.488C50.0289 188.488 50.4226 188.646 50.734 188.963C51.0453 189.261 51.201 189.639 51.201 190.096V190.438C51.6222 189.718 52.2265 189.173 53.014 188.805C53.8015 188.418 54.6439 188.225 55.5413 188.225Z" fill="white"/>
<path d="M62.9197 200.978C62.9197 201.435 62.7641 201.822 62.4527 202.138C62.1414 202.436 61.7477 202.586 61.2715 202.586C60.7953 202.586 60.4016 202.436 60.0903 202.138C59.7789 201.822 59.6233 201.435 59.6233 200.978V190.096C59.6233 189.639 59.7789 189.261 60.0903 188.963C60.4016 188.646 60.7953 188.488 61.2715 188.488C61.7477 188.488 62.1414 188.646 62.4527 188.963C62.7641 189.261 62.9197 189.639 62.9197 190.096V200.978ZM61.244 186.776C60.6214 186.776 60.1818 186.679 59.9254 186.486C59.669 186.293 59.5408 185.95 59.5408 185.458V184.957C59.5408 184.466 59.6782 184.123 59.9529 183.93C60.2276 183.737 60.6671 183.64 61.2715 183.64C61.9125 183.64 62.3612 183.737 62.6175 183.93C62.8739 184.123 63.0021 184.466 63.0021 184.957V185.458C63.0021 185.968 62.8648 186.319 62.5901 186.512C62.3337 186.688 61.885 186.776 61.244 186.776Z" fill="white"/>
<path d="M78.477 188.225C78.9532 188.225 79.3469 188.374 79.6583 188.673C79.9696 188.971 80.1253 189.358 80.1253 189.832V201.558C80.1253 203.701 79.4294 205.282 78.0375 206.301C76.664 207.338 74.915 207.856 72.7906 207.856C72.2412 207.856 71.4812 207.768 70.5106 207.592C69.5583 207.417 68.8807 207.241 68.4778 207.065C67.5804 206.696 67.1317 206.187 67.1317 205.537C67.1317 205.414 67.1592 205.273 67.2141 205.115C67.324 204.729 67.5072 204.43 67.7635 204.219C68.0382 204.026 68.3313 203.93 68.6426 203.93C68.8257 203.93 68.9997 203.956 69.1645 204.009C69.2378 204.026 69.6865 204.184 70.5106 204.483C71.353 204.799 72.113 204.957 72.7906 204.957C74.1459 204.957 75.1531 204.694 75.8124 204.167C76.49 203.657 76.8288 202.928 76.8288 201.98V200.715C76.4259 201.259 75.8124 201.751 74.9883 202.19C74.1825 202.63 73.3126 202.849 72.3786 202.849C71.0966 202.849 69.9246 202.542 68.8624 201.927C67.8185 201.295 66.9944 200.425 66.39 199.318C65.7857 198.212 65.4835 196.956 65.4835 195.55C65.4835 194.145 65.7765 192.889 66.3625 191.782C66.9669 190.658 67.7819 189.788 68.8074 189.173C69.8513 188.541 71.0051 188.225 72.2687 188.225C73.2027 188.225 74.0726 188.409 74.8784 188.778C75.6842 189.147 76.3343 189.595 76.8288 190.122V189.832C76.8288 189.376 76.9845 188.998 77.2958 188.699C77.6071 188.383 78.0009 188.225 78.477 188.225ZM72.7906 199.951C74.0177 199.951 75.0158 199.538 75.7849 198.712C76.5724 197.869 76.9662 196.815 76.9662 195.55C76.9662 194.285 76.5724 193.231 75.7849 192.388C75.0158 191.545 74.0177 191.123 72.7906 191.123C71.5636 191.123 70.5655 191.545 69.7964 192.388C69.0272 193.231 68.6426 194.285 68.6426 195.55C68.6426 196.815 69.0272 197.869 69.7964 198.712C70.5655 199.538 71.5636 199.951 72.7906 199.951Z" fill="white"/>
<path d="M95.4519 188.225C95.928 188.225 96.3218 188.374 96.6331 188.673C96.9445 188.971 97.1001 189.358 97.1001 189.832V200.978C97.1001 201.435 96.9445 201.822 96.6331 202.138C96.3218 202.436 95.928 202.586 95.4519 202.586C94.9757 202.586 94.582 202.436 94.2707 202.138C93.9776 201.839 93.822 201.461 93.8037 201.005C93.3458 201.514 92.7231 201.953 91.9357 202.322C91.1665 202.674 90.3515 202.849 89.4908 202.849C88.2271 202.849 87.0825 202.542 86.057 201.927C85.0314 201.295 84.2165 200.425 83.6121 199.318C83.0261 198.212 82.733 196.956 82.733 195.55C82.733 194.145 83.0261 192.889 83.6121 191.782C84.1981 190.658 84.9948 189.788 86.002 189.173C87.0276 188.541 88.1539 188.225 89.3809 188.225C90.26 188.225 91.0841 188.383 91.8533 188.699C92.6224 188.998 93.2726 189.384 93.8037 189.859V189.832C93.8037 189.376 93.9593 188.998 94.2707 188.699C94.582 188.383 94.9757 188.225 95.4519 188.225ZM89.9028 199.951C91.0932 199.951 92.0639 199.538 92.8147 198.712C93.5656 197.869 93.941 196.815 93.941 195.55C93.941 194.285 93.5656 193.231 92.8147 192.388C92.0639 191.545 91.0932 191.123 89.9028 191.123C88.7308 191.123 87.7693 191.545 87.0184 192.388C86.2676 193.231 85.8922 194.285 85.8922 195.55C85.8922 196.815 86.2584 197.869 86.991 198.712C87.7418 199.538 88.7125 199.951 89.9028 199.951Z" fill="white"/>
<path d="M112.567 183.087C113.043 183.087 113.437 183.236 113.749 183.535C114.06 183.833 114.216 184.22 114.216 184.694V200.978C114.216 201.435 114.06 201.822 113.749 202.138C113.437 202.436 113.043 202.586 112.567 202.586C112.091 202.586 111.697 202.436 111.386 202.138C111.093 201.839 110.937 201.461 110.919 201.005C110.461 201.514 109.839 201.953 109.051 202.322C108.282 202.674 107.467 202.849 106.606 202.849C105.343 202.849 104.198 202.542 103.172 201.927C102.147 201.295 101.332 200.425 100.728 199.318C100.141 198.212 99.8485 196.956 99.8485 195.55C99.8485 194.145 100.141 192.889 100.728 191.782C101.314 190.658 102.11 189.788 103.117 189.173C104.143 188.541 105.269 188.225 106.496 188.225C107.375 188.225 108.199 188.383 108.969 188.699C109.738 188.998 110.388 189.384 110.919 189.859V184.694C110.919 184.237 111.075 183.86 111.386 183.561C111.697 183.245 112.091 183.087 112.567 183.087ZM107.018 199.951C108.209 199.951 109.179 199.538 109.93 198.712C110.681 197.869 111.056 196.815 111.056 195.55C111.056 194.285 110.681 193.231 109.93 192.388C109.179 191.545 108.209 191.123 107.018 191.123C105.846 191.123 104.885 191.545 104.134 192.388C103.383 193.231 103.008 194.285 103.008 195.55C103.008 196.815 103.374 197.869 104.106 198.712C104.857 199.538 105.828 199.951 107.018 199.951Z" fill="white"/>
<path d="M120.892 200.978C120.892 201.435 120.736 201.822 120.425 202.138C120.114 202.436 119.72 202.586 119.244 202.586C118.768 202.586 118.374 202.436 118.063 202.138C117.751 201.822 117.596 201.435 117.596 200.978V190.096C117.596 189.639 117.751 189.261 118.063 188.963C118.374 188.646 118.768 188.488 119.244 188.488C119.72 188.488 120.114 188.646 120.425 188.963C120.736 189.261 120.892 189.639 120.892 190.096V200.978ZM119.216 186.776C118.594 186.776 118.154 186.679 117.898 186.486C117.641 186.293 117.513 185.95 117.513 185.458V184.957C117.513 184.466 117.651 184.123 117.925 183.93C118.2 183.737 118.64 183.64 119.244 183.64C119.885 183.64 120.334 183.737 120.59 183.93C120.846 184.123 120.975 184.466 120.975 184.957V185.458C120.975 185.968 120.837 186.319 120.563 186.512C120.306 186.688 119.857 186.776 119.216 186.776Z" fill="white"/>
<path d="M123.428 200.399C123.264 200.188 123.181 199.924 123.181 199.608C123.181 199.151 123.419 198.765 123.895 198.449C124.152 198.291 124.417 198.212 124.692 198.212C125.077 198.212 125.443 198.378 125.791 198.712C126.34 199.257 126.908 199.661 127.494 199.924C128.098 200.188 128.822 200.32 129.664 200.32C131.093 200.267 131.807 199.749 131.807 198.765C131.807 198.256 131.56 197.869 131.065 197.606C130.589 197.342 129.838 197.079 128.813 196.815C127.75 196.534 126.881 196.253 126.203 195.972C125.544 195.691 124.967 195.269 124.472 194.707C123.996 194.127 123.758 193.354 123.758 192.388C123.758 191.545 124.005 190.816 124.5 190.201C125.013 189.569 125.672 189.086 126.478 188.752C127.302 188.401 128.172 188.225 129.087 188.225C130.021 188.225 130.955 188.392 131.889 188.726C132.823 189.059 133.556 189.551 134.087 190.201C134.325 190.482 134.444 190.798 134.444 191.15C134.444 191.554 134.27 191.888 133.922 192.151C133.666 192.344 133.373 192.441 133.043 192.441C132.64 192.441 132.311 192.318 132.054 192.072C131.725 191.686 131.294 191.378 130.763 191.15C130.25 190.921 129.664 190.807 129.005 190.807C127.613 190.807 126.917 191.29 126.917 192.256C126.917 192.643 127.045 192.959 127.302 193.205C127.558 193.433 127.879 193.618 128.263 193.758C128.666 193.881 129.225 194.039 129.939 194.233C130.928 194.496 131.752 194.769 132.411 195.05C133.071 195.331 133.629 195.761 134.087 196.341C134.545 196.92 134.774 197.685 134.774 198.633C134.774 199.494 134.508 200.249 133.977 200.899C133.446 201.532 132.759 202.015 131.917 202.349C131.093 202.682 130.241 202.849 129.362 202.849C128.153 202.849 127.027 202.656 125.983 202.27C124.939 201.883 124.088 201.259 123.428 200.399Z" fill="white"/>
<path d="M144.62 199.608C144.876 199.608 145.105 199.731 145.307 199.977C145.526 200.205 145.636 200.513 145.636 200.899C145.636 201.374 145.361 201.778 144.812 202.111C144.281 202.428 143.677 202.586 142.999 202.586C141.864 202.586 140.902 202.357 140.115 201.901C139.345 201.426 138.961 200.434 138.961 198.923V191.65H137.697C137.258 191.65 136.891 191.51 136.598 191.229C136.305 190.948 136.159 190.596 136.159 190.175C136.159 189.771 136.305 189.437 136.598 189.173C136.891 188.892 137.258 188.752 137.697 188.752H138.961V187.065C138.961 186.609 139.117 186.231 139.428 185.932C139.758 185.616 140.16 185.458 140.637 185.458C141.094 185.458 141.479 185.616 141.79 185.932C142.102 186.231 142.257 186.609 142.257 187.065V188.752H144.208C144.647 188.752 145.014 188.892 145.307 189.173C145.6 189.455 145.746 189.806 145.746 190.228C145.746 190.632 145.6 190.974 145.307 191.255C145.014 191.519 144.647 191.65 144.208 191.65H142.257V198.791C142.257 199.16 142.358 199.432 142.56 199.608C142.761 199.766 143.036 199.845 143.384 199.845C143.53 199.845 143.732 199.81 143.988 199.74C144.208 199.652 144.418 199.608 144.62 199.608Z" fill="white"/>
<path d="M160.668 188.225C161.144 188.225 161.537 188.374 161.849 188.673C162.16 188.971 162.316 189.358 162.316 189.832V200.978C162.316 201.435 162.16 201.822 161.849 202.138C161.537 202.436 161.144 202.586 160.668 202.586C160.191 202.586 159.798 202.436 159.486 202.138C159.193 201.839 159.038 201.461 159.019 201.005C158.561 201.514 157.939 201.953 157.151 202.322C156.382 202.674 155.567 202.849 154.706 202.849C153.443 202.849 152.298 202.542 151.273 201.927C150.247 201.295 149.432 200.425 148.828 199.318C148.242 198.212 147.949 196.956 147.949 195.55C147.949 194.145 148.242 192.889 148.828 191.782C149.414 190.658 150.21 189.788 151.218 189.173C152.243 188.541 153.37 188.225 154.597 188.225C155.476 188.225 156.3 188.383 157.069 188.699C157.838 188.998 158.488 189.384 159.019 189.859V189.832C159.019 189.376 159.175 188.998 159.486 188.699C159.798 188.383 160.191 188.225 160.668 188.225ZM155.118 199.951C156.309 199.951 157.279 199.538 158.03 198.712C158.781 197.869 159.157 196.815 159.157 195.55C159.157 194.285 158.781 193.231 158.03 192.388C157.279 191.545 156.309 191.123 155.118 191.123C153.946 191.123 152.985 191.545 152.234 192.388C151.483 193.231 151.108 194.285 151.108 195.55C151.108 196.815 151.474 197.869 152.207 198.712C152.957 199.538 153.928 199.951 155.118 199.951Z" fill="white"/>
</svg>
